<?xml version="1.0" encoding="utf-8"?>
<svg xmlns="http://www.w3.org/2000/svg"
	xmlns:xlink="http://www.w3.org/1999/xlink"
	width="48px" height="34px" viewBox="0 0 48 34">
<path fillRule="evenodd" d="M 40.97 33.97C 40.97 33.97 38.85 31.85 38.85 31.85 42.65 28.05 45 22.8 45 17 45 11.2 42.65 5.95 38.85 2.15 38.85 2.15 40.97 0.03 40.97 0.03 45.31 4.37 48 10.37 48 17 48 23.63 45.31 29.63 40.97 33.97ZM 24 34C 14.61 34 7 26.39 7 17 7 7.61 14.61-0 24-0 33.39-0 41 7.61 41 17 41 26.39 33.39 34 24 34ZM 24 3C 16.27 3 10 9.27 10 17 10 24.73 16.27 31 24 31 31.73 31 38 24.73 38 17 38 9.27 31.73 3 24 3ZM 24 27C 22.9 27 22 26.1 22 25 22 23.9 22.9 23 24 23 25.1 23 26 23.9 26 25 26 26.1 25.1 27 24 27ZM 24 21C 22.9 21 22 20.1 22 19 22 19 22 8 22 8 22 6.9 22.9 6 24 6 25.1 6 26 6.9 26 8 26 8 26 19 26 19 26 20.1 25.1 21 24 21ZM 9.15 31.85C 9.15 31.85 7.03 33.97 7.03 33.97 2.69 29.63-0 23.63-0 17-0 10.37 2.69 4.37 7.03 0.03 7.03 0.03 9.15 2.15 9.15 2.15 5.35 5.95 3 11.2 3 17 3 22.8 5.35 28.05 9.15 31.85Z" fill="rgb(199,8,27)"/></svg>