<?xml version="1.0" encoding="utf-8"?>
<!-- Generator: Adobe Illustrator 18.1.1, SVG Export Plug-In . SVG Version: 6.00 Build 0)  -->
<svg version="1.1" id="Layer_1" xmlns="http://www.w3.org/2000/svg" xmlns:xlink="http://www.w3.org/1999/xlink" x="0px" y="0px"
	 viewBox="0 0 24 24" enable-background="new 0 0 24 24" xml:space="preserve">
<ellipse fill="none" stroke="#FFFFFF" stroke-width="2" stroke-miterlimit="10" cx="12" cy="6" rx="8" ry="3"/>
<ellipse fill="#FFFFFF" stroke="#FFFFFF" cx="8.5" cy="6" rx="1.5" ry="0.8"/>
<path fill="#FFFFFF" d="M20,13.9c0.6-0.6,1-1.2,1-1.9s-0.4-1.3-1-1.9V7h-0.5c-1.1,1.2-4.1,2-7.5,2S5.6,8.2,4.5,7H4v3.1c-0.6,0.6-1,1.2-1,1.9
	s0.4,1.3,1,1.9v2.2c-0.6,0.6-1,1.2-1,1.9c0,2.3,3.9,4,9,4s9-1.7,9-4c0-0.7-0.4-1.3-1-1.9V13.9z M12,19c-1.7,0-3-1.3-3-3s3-5,3-5
	s3,3.3,3,5S13.7,19,12,19z"/>
</svg>
