<?xml version="1.0" encoding="utf-8"?>
<!-- Generator: Adobe Illustrator 18.0.0, SVG Export Plug-In . SVG Version: 6.00 Build 0)  -->
<!DOCTYPE svg PUBLIC "-//W3C//DTD SVG 1.0//EN" "http://www.w3.org/TR/2001/REC-SVG-20010904/DTD/svg10.dtd">
<svg version="1.0" id="Layer_1" xmlns="http://www.w3.org/2000/svg" xmlns:xlink="http://www.w3.org/1999/xlink" x="0px" y="0px"
	 viewBox="0 0 24 24" enable-background="new 0 0 24 24" xml:space="preserve">
<path fill="#FFFFFF" d="M12,2C6.5,2,2,6.5,2,12s4.5,10,10,10s10-4.5,10-10S17.5,2,12,2z M12,4.5c2.9,0,5.5,1.7,6.7,4.2c0.2,0.5-0.3,1-0.7,0.7
	c-1.3-0.6-3.5-1.5-6-1.5S7.3,8.8,6,9.4c-0.5,0.2-1-0.3-0.7-0.7C6.5,6.2,9.1,4.5,12,4.5z M10.4,18.9c0,0.2-0.2,0.4-0.4,0.3
	c-2.5-0.7-4.5-2.7-5.2-5.2c-0.1-0.2,0.1-0.4,0.3-0.4h0.1C8.1,13.6,10.4,15.9,10.4,18.9L10.4,18.9z M12,14.1c-1.1,0-2.1-0.9-2.1-2.1
	s0.9-2.1,2.1-2.1s2.1,0.9,2.1,2.1S13.1,14.1,12,14.1z M14,19.2c-0.2,0.1-0.4-0.1-0.4-0.3v-0.1c0-2.9,2.3-5.2,5.2-5.2h0.1
	c0.2,0,0.4,0.2,0.3,0.4C18.5,16.5,16.5,18.5,14,19.2z"/>
</svg>
