<?xml version="1.0" encoding="utf-8"?>
<!-- Generator: Adobe Illustrator 18.0.0, SVG Export Plug-In . SVG Version: 6.00 Build 0)  -->
<!DOCTYPE svg PUBLIC "-//W3C//DTD SVG 1.0//EN" "http://www.w3.org/TR/2001/REC-SVG-20010904/DTD/svg10.dtd">
<svg version="1.0" id="Layer_1" xmlns="http://www.w3.org/2000/svg" xmlns:xlink="http://www.w3.org/1999/xlink" x="0px" y="0px"
	 viewBox="0 0 24 24" enable-background="new 0 0 24 24" xml:space="preserve">
<g>
	<path fill="#FFFFFF" d="M15,5c1.1,0,3,2.7,3,7s-1.9,7-3,7s-3-2.7-3-7S13.9,5,15,5 M15,2c-3.3,0-6,4.5-6,10s2.7,10,6,10s6-4.5,6-10S18.3,2,15,2
		L15,2z"/>
</g>
<path fill="#FFFFFF" d="M5,12c0-5.3,2.4-9.5,5.5-10c-0.2,0-0.3,0-0.5,0C9.5,2,9.5,2,9,2C5.6,2,3,6.4,3,12s2.6,10,6,10c0.5,0,0.5,0,1,0
	c0.2,0,0.3,0,0.5,0C7.4,21.5,5,17.3,5,12z"/>
<path fill="#FFFFFF" d="M8,12c0-5.3,2.4-9.5,5.5-10c-0.2,0-0.3,0-0.5,0c-0.5,0-0.5,0-1,0C8.6,2,6,6.4,6,12s2.6,10,6,10c0.5,0,0.5,0,1,0
	c0.2,0,0.3,0,0.5,0C10.4,21.5,8,17.3,8,12z"/>
<polyline fill="none" stroke="#FFFFFF" stroke-width="1.5" stroke-miterlimit="10" points="4,13 7,11 10,13 "/>
<polyline fill="none" stroke="#FFFFFF" stroke-width="1.5" stroke-miterlimit="10" points="4.9,16.8 7,15 10.7,16.6 "/>
<polyline fill="none" stroke="#FFFFFF" stroke-width="1.5" stroke-miterlimit="10" points="7.5,20.1 9.2,18.5 14,20.4 "/>
<polyline fill="none" stroke="#FFFFFF" stroke-width="1.5" stroke-miterlimit="10" points="4,9 7.6,7 10,9 "/>
<polyline fill="none" stroke="#FFFFFF" stroke-width="1.5" stroke-miterlimit="10" points="5.4,5.4 9.4,3.9 11.2,5.8 "/>
</svg>
